<?xml version="1.0" encoding="UTF-8"?>
<svg xmlns="http://www.w3.org/2000/svg">
	<symbol id="check" width="35" height="35" viewBox="0 0 35 35">
		<g>
			<path d="M 33.472656 2.277344 C 31.890625 1.425781 30.128906 3.066406 29.097656 4.039062 C 26.730469 6.347656 24.722656 9.019531 22.476562 11.449219 C 19.984375 14.125 17.679688 16.796875 15.125 19.410156 C 13.667969 20.867188 12.089844 22.445312 11.117188 24.269531 C 8.929688 22.140625 7.046875 19.832031 4.617188 17.949219 C 2.855469 16.613281 -0.0585938 15.640625 0 18.863281 C 0.121094 23.054688 3.828125 27.546875 6.5625 30.402344 C 7.714844 31.617188 9.234375 32.894531 10.996094 32.953125 C 13.121094 33.074219 15.308594 30.523438 16.585938 29.128906 C 18.832031 26.699219 20.65625 23.964844 22.71875 21.472656 C 25.390625 18.195312 28.125 14.972656 30.738281 11.632812 C 32.378906 9.566406 37.542969 4.464844 33.472656 2.277344 Z M 2.671875 18.617188 C 2.613281 18.617188 2.550781 18.617188 2.429688 18.679688 C 2.1875 18.617188 2.003906 18.558594 1.761719 18.4375 C 1.945312 18.316406 2.25 18.375 2.671875 18.617188 Z M 2.671875 18.617188 " />
		</g>
	</symbol>
	<symbol id="star" width="20" height="20" viewBox="0 0 20 20" fill="none">
		<g>
			<g clip-path="url(#clip0_279_2389)">
				<path d="M4.47642 19.5956C4.2573 19.5956 4.03971 19.5273 3.854 19.393C3.50808 19.1423 3.34648 18.7114 3.44063 18.2956L4.72729 12.6278L0.363771 8.80115C0.0430227 8.52114 -0.0795085 8.07771 0.0521782 7.67197C0.183865 7.26699 0.54215 6.98027 0.966356 6.94105L6.73982 6.4169L9.02244 1.07512C9.19075 0.682654 9.57406 0.429199 9.99994 0.429199C10.4258 0.429199 10.8091 0.682654 10.9774 1.0742L13.2601 6.4169L19.0326 6.94105C19.4577 6.97935 19.816 7.26699 19.9477 7.67197C20.0794 8.07695 19.9576 8.52114 19.6369 8.80115L15.2734 12.6271L16.56 18.2946C16.6543 18.7114 16.4926 19.1423 16.1468 19.3922C15.8018 19.6422 15.3417 19.6614 14.9784 19.4431L9.99994 16.468L5.02148 19.4447C4.85317 19.5447 4.66564 19.5956 4.47642 19.5956ZM9.99994 15.1864C10.1892 15.1864 10.3765 15.2372 10.545 15.3371L15.2435 18.1472L14.0291 12.7978C13.9425 12.4171 14.0717 12.0196 14.3659 11.762L18.486 8.14867L13.035 7.65366C12.6425 7.6178 12.305 7.37106 12.1516 7.00942L9.99994 1.96839L7.84565 7.01018C7.69398 7.36938 7.35644 7.61612 6.96489 7.65198L1.51309 8.14699L5.63307 11.7604C5.92818 12.0187 6.05728 12.4154 5.96984 12.7971L4.75643 18.1463L9.45489 15.3371C9.62319 15.2372 9.81073 15.1864 9.99994 15.1864ZM6.69572 6.52021C6.69572 6.52021 6.69572 6.52112 6.6948 6.52188L6.69572 6.52021ZM13.3025 6.51777L13.3034 6.51944C13.3034 6.51853 13.3034 6.51853 13.3025 6.51777Z" fill="#FFA800" />
				<path d="M9.99994 15.1864C10.1892 15.1864 10.3765 15.2372 10.545 15.3371L15.2435 18.1472L14.0291 12.7978C13.9425 12.4171 14.0717 12.0196 14.3659 11.762L18.486 8.14867L13.035 7.65366C12.6425 7.6178 12.305 7.37106 12.1516 7.00942L9.99994 1.96839L7.84565 7.01018C7.69398 7.36938 7.35644 7.61612 6.96489 7.65198L1.51309 8.14699L5.63307 11.7604C5.92818 12.0187 6.05728 12.4154 5.96984 12.7971L4.75643 18.1463L9.45489 15.3371C9.62319 15.2372 9.81073 15.1864 9.99994 15.1864Z" fill="#FFA800" />
			</g>
			<defs>
				<clipPath id="clip0_279_2389">
					<rect width="20" height="20" fill="white" />
				</clipPath>
			</defs>
		</g>
	</symbol>
	<symbol id="timer" width="32" height="32" viewBox="0 0 32 32" fill="none">
		<g>
			<path d="M16 7.66667V16H24.3333M16 31C7.71573 31 1 24.2843 1 16C1 7.71573 7.71573 1 16 1C24.2843 1 31 7.71573 31 16C31 24.2843 24.2843 31 16 31Z" stroke="#13340A" stroke-width="2" stroke-linecap="round" stroke-linejoin="round" />
		</g>
	</symbol>
	<symbol id="ok" width="40" height="40" viewBox="0 0 40 40" fill="none">
		<g>
			<rect width="40" height="40" fill="#F79A38" />
			<path d="M26.2376 22.7928C26.7624 22.2681 26.8373 21.5185 26.3876 20.7689C26.0128 20.1692 25.3381 19.8694 24.5885 20.0193C24.2887 20.0942 23.9888 20.2442 23.689 20.469C21.3652 22.0432 18.2168 21.9683 15.893 20.3941C15.7431 20.3191 15.5932 20.2442 15.4433 20.1692C14.6187 19.7944 13.7941 19.9443 13.3444 20.6939C12.8196 21.4435 12.8946 22.2681 13.5692 22.9428C13.7192 23.0927 13.8691 23.1676 13.944 23.3176L14.019 23.3925C15.0685 24.2171 16.3428 24.7418 17.9919 24.9667L17.0174 25.9412C16.1929 26.7658 15.2933 27.6653 14.4688 28.4899C14.2439 28.7148 13.944 29.0896 13.944 29.6143C13.944 30.2889 14.3188 30.9636 14.9935 31.2634C15.2184 31.4133 15.4433 31.4133 15.6681 31.4133C16.0429 31.4133 16.4927 31.2634 16.7926 30.8886C17.917 29.7642 18.8165 28.8647 19.716 27.9651C19.791 27.8902 19.791 27.8902 19.791 27.8902C19.791 27.8902 19.866 27.8902 19.866 27.9651C20.4656 28.6398 21.1403 29.2395 21.74 29.9141C22.0398 30.214 22.3397 30.5138 22.6395 30.8137C23.0143 31.1885 23.3142 31.3384 23.7639 31.3384C24.4386 31.4134 25.1882 30.9636 25.488 30.2889C25.7879 29.6892 25.638 28.9396 25.1132 28.4899C24.3636 27.7403 23.614 26.9157 22.7894 26.1661L21.5151 24.8917C22.1898 24.8168 22.9394 24.6669 23.614 24.367C24.7384 23.9922 25.563 23.4675 26.2376 22.7928Z" fill="white" />
			<path d="M19.791 20.6939C23.0143 20.6939 25.638 18.1452 25.638 14.9219C25.638 13.3477 25.0383 11.8485 23.9138 10.7241C22.7894 9.59969 21.3652 9 19.866 9C16.6426 9 14.094 11.6236 14.019 14.772C14.019 16.3462 14.6187 17.7704 15.7431 18.8948C16.7926 20.0942 18.2168 20.6939 19.791 20.6939ZM18.1419 13.1978C18.5916 12.7481 19.1913 12.5232 19.791 12.5232C21.1403 12.5232 22.1148 13.5726 22.1148 14.847C22.1148 16.1963 21.0653 17.1707 19.791 17.1707C18.4417 17.1707 17.4672 16.1213 17.4672 14.847C17.4672 14.2473 17.6921 13.6476 18.1419 13.1978Z" fill="white" />
			<path d="M26.2376 22.7928C26.7624 22.2681 26.8373 21.5185 26.3876 20.7689C26.0128 20.1692 25.3381 19.8694 24.5885 20.0193C24.2887 20.0942 23.9888 20.2442 23.689 20.469C21.3652 22.0432 18.2168 21.9683 15.893 20.3941C15.7431 20.3191 15.5932 20.2442 15.4433 20.1692C14.6187 19.7944 13.7941 19.9443 13.3444 20.6939C12.8196 21.4435 12.8946 22.2681 13.5692 22.9428C13.7192 23.0927 13.8691 23.1676 13.944 23.3176L14.019 23.3925C15.0685 24.2171 16.3428 24.7418 17.9919 24.9667L17.0174 25.9412C16.1929 26.7658 15.2933 27.6653 14.4688 28.4899C14.2439 28.7148 13.944 29.0896 13.944 29.6143C13.944 30.2889 14.3188 30.9636 14.9935 31.2634C15.2184 31.4133 15.4433 31.4133 15.6681 31.4133C16.0429 31.4133 16.4927 31.2634 16.7926 30.8886C17.917 29.7642 18.8165 28.8647 19.716 27.9651C19.791 27.8902 19.791 27.8902 19.791 27.8902C19.791 27.8902 19.866 27.8902 19.866 27.9651C20.4656 28.6398 21.1403 29.2395 21.74 29.9141C22.0398 30.214 22.3397 30.5138 22.6395 30.8137C23.0143 31.1885 23.3142 31.3384 23.7639 31.3384C24.4386 31.4134 25.1882 30.9636 25.488 30.2889C25.7879 29.6892 25.638 28.9396 25.1132 28.4899C24.3636 27.7403 23.614 26.9157 22.7894 26.1661L21.5151 24.8917C22.1898 24.8168 22.9394 24.6669 23.614 24.367C24.7384 23.9922 25.563 23.4675 26.2376 22.7928Z" fill="white" />
		</g>
	</symbol>
	<symbol id="vk" width="40" height="40" viewBox="0 0 40 40" fill="none">
		<g>
			<rect width="40" height="40" fill="#0077FF" />
			<path d="M20.9825 27C13.466 27 9.17864 21.7447 9 13H12.7651C12.8888 19.4184 15.6646 22.1371 17.8632 22.6977V13H21.4085V18.5355C23.5796 18.2973 25.8607 15.7748 26.6302 13H30.1755C29.8855 14.4391 29.3075 15.8017 28.4776 17.0025C27.6477 18.2033 26.5837 19.2166 25.3523 19.979C26.7269 20.6756 27.941 21.6615 28.9145 22.8717C29.888 24.082 30.5988 25.489 31 27H27.0974C26.7373 25.6876 26.0054 24.5128 24.9934 23.6228C23.9814 22.7328 22.7343 22.1673 21.4085 21.997V27H20.9825Z" fill="white" />
		</g>
	</symbol>
	<symbol id="telegram" width="40" height="40" viewBox="0 0 40 40" fill="none">
		<g>
			<rect width="40" height="40" fill="#27A6E5" />
			<path d="M28 12.6022L24.9946 28.2923C24.9946 28.2923 24.5741 29.3801 23.4189 28.8584L16.4846 23.3526L16.4524 23.3364C17.3891 22.4654 24.6524 15.7027 24.9698 15.3961C25.4613 14.9214 25.1562 14.6387 24.5856 14.9974L13.8568 22.053L9.71764 20.6108C9.71764 20.6108 9.06626 20.3708 9.00359 19.8491C8.9401 19.3265 9.73908 19.0439 9.73908 19.0439L26.6131 12.1889C26.6131 12.1889 28 11.5579 28 12.6022Z" fill="#FEFEFE" />
		</g>
	</symbol>
	<symbol id="phone" width="25" height="25" viewBox="0 0 25 25">
		<g>
			<g clip-path="url(#clip0_1222_31256)">
				<path d="M1.81836 9.37107C1.1105 8.27368 0.80193 6.96598 0.944609 5.66786C1.08747 4.36975 1.67282 3.16038 2.60247 2.24313L3.38657 1.44122C3.74621 1.08967 4.22907 0.892822 4.73193 0.892822C5.23479 0.892822 5.71782 1.08967 6.07729 1.44122L9.4453 4.84482C9.79573 5.20141 9.99209 5.68136 9.99209 6.18132C9.99209 6.68127 9.79573 7.16123 9.4453 7.5178C9.09373 7.87739 8.89689 8.36032 8.89689 8.86321C8.89689 9.36611 9.09373 9.84902 9.4453 10.2086L14.7913 15.5546C14.967 15.7329 15.1765 15.8745 15.4074 15.9712C15.6384 16.0679 15.8863 16.1176 16.1367 16.1176C16.3871 16.1176 16.6349 16.0679 16.8659 15.9712C17.0969 15.8745 17.3063 15.7329 17.4821 15.5546C17.8386 15.2041 18.3186 15.0078 18.8186 15.0078C19.3185 15.0078 19.7985 15.2041 20.1551 15.5546L23.5408 18.9403C23.8924 19.3 24.0892 19.7828 24.0892 20.2857C24.0892 20.7887 23.8924 21.2716 23.5408 21.6312L22.7389 22.4153C21.8217 23.3448 20.6123 23.9301 19.3142 24.073C18.0161 24.2159 16.7084 23.9073 15.611 23.1993C10.1746 19.5105 5.49318 14.8169 1.81836 9.37107Z" stroke-linecap="round" stroke-linejoin="round" />
			</g>
			<defs>
				<clipPath id="clip0_1222_31256">
					<rect width="25" height="25" transform="matrix(0 1 -1 0 25 0)" />
				</clipPath>
			</defs>
		</g>
	</symbol>
	<symbol id="location" width="24" height="24" viewBox="0 0 24 24">
		<g>
			<path d="M12 0C7.16188 0 3.22583 4.00679 3.22583 8.93181C3.22583 11.6867 4.61915 15.0304 7.3672 18.8701C9.37823 21.6802 11.3599 23.6843 11.4433 23.7683C11.5966 23.9226 11.7983 24 12.0001 24C12.1962 24 12.3923 23.927 12.5444 23.7805C12.628 23.7 14.6147 21.777 16.6295 19.0058C19.3798 15.2229 20.7743 11.8336 20.7743 8.93177C20.7742 4.00679 16.838 0 12 0ZM12 12.7878C9.63469 12.7878 7.71042 10.8635 7.71042 8.49822C7.71042 6.13295 9.63473 4.20863 12 4.20863C14.3653 4.20863 16.2896 6.13295 16.2896 8.49822C16.2896 10.8635 14.3652 12.7878 12 12.7878Z" />
		</g>
	</symbol>
	<symbol id="close" width="14" height="14" viewBox="0 0 14 14" fill="none">
		<g>
			<g clip-path="url(#clip0_1222_37032)">
				<path d="M13.5 0.5L0.5 13.5" stroke="black" stroke-linecap="round" stroke-linejoin="round" />
				<path d="M0.5 0.5L13.5 13.5" stroke="black" stroke-linecap="round" stroke-linejoin="round" />
			</g>
			<defs>
				<clipPath id="clip0_1222_37032">
					<rect width="14" height="14" fill="white" />
				</clipPath>
			</defs>
		</g>
	</symbol>
	<symbol id="note" width="24" height="24" viewBox="0 0 24 24" fill="none">
		<g>
			<path d="M10.0002 4H7.2002C6.08009 4 5.51962 4 5.0918 4.21799C4.71547 4.40973 4.40973 4.71547 4.21799 5.0918C4 5.51962 4 6.08009 4 7.2002V16.8002C4 17.9203 4 18.4801 4.21799 18.9079C4.40973 19.2842 4.71547 19.5905 5.0918 19.7822C5.5192 20 6.07899 20 7.19691 20H16.8031C17.921 20 18.48 20 18.9074 19.7822C19.2837 19.5905 19.5905 19.2839 19.7822 18.9076C20 18.4802 20 17.921 20 16.8031V14M16 5L10 11V14H13L19 8M16 5L19 2L22 5L19 8M16 5L19 8" stroke="#13340A" stroke-width="2" stroke-linecap="round" stroke-linejoin="round" />
		</g>
	</symbol>
	<symbol id="trash" width="24" height="24" viewBox="0 0 24 24" fill="none">
		<g>
			<path d="M21 5.98047C17.67 5.65047 14.32 5.48047 10.98 5.48047C9 5.48047 7.02 5.58047 5.04 5.78047L3 5.98047" stroke="#13340A" stroke-width="1.5" stroke-linecap="round" stroke-linejoin="round" />
			<path d="M8.5 4.97L8.72 3.66C8.88 2.71 9 2 10.69 2H13.31C15 2 15.13 2.75 15.28 3.67L15.5 4.97" stroke="#13340A" stroke-width="1.5" stroke-linecap="round" stroke-linejoin="round" />
			<path d="M18.8504 9.14062L18.2004 19.2106C18.0904 20.7806 18.0004 22.0006 15.2104 22.0006H8.79039C6.00039 22.0006 5.91039 20.7806 5.80039 19.2106L5.15039 9.14062" stroke="#13340A" stroke-width="1.5" stroke-linecap="round" stroke-linejoin="round" />
			<path d="M10.3301 16.5H13.6601" stroke="#13340A" stroke-width="1.5" stroke-linecap="round" stroke-linejoin="round" />
			<path d="M9.5 12.5H14.5" stroke="#13340A" stroke-width="1.5" stroke-linecap="round" stroke-linejoin="round" />
		</g>
	</symbol>
	<symbol id="shevron-right" width="30" height="30" viewBox="0 0 30 30" fill="none">
		<g>
			<path d="M11.25 7.5L18.75 15L11.25 22.5" stroke="#13340A" stroke-width="2" />
		</g>
	</symbol>
	<symbol id="pencilControls" width="24" height="24" viewBox="0 0 24 24" fill="none">
		<g>
			<path fill-rule="evenodd" clip-rule="evenodd" d="M17.204 10.796L19 9C19.5453 8.45475 19.8179 8.18213 19.9636 7.88803C20.2409 7.32848 20.2409 6.67152 19.9636 6.11197C19.8179 5.81788 19.5453 5.54525 19 5C18.4548 4.45475 18.1821 4.18213 17.888 4.03639C17.3285 3.75911 16.6715 3.75911 16.112 4.03639C15.8179 4.18213 15.5453 4.45475 15 5L13.1814 6.81866C14.1452 8.46926 15.5314 9.84482 17.204 10.796ZM11.7269 8.27311L4.8564 15.1436C4.43134 15.5687 4.21881 15.7812 4.07907 16.0423C3.93934 16.3034 3.88039 16.5981 3.7625 17.1876L3.1471 20.2646C3.08058 20.5972 3.04732 20.7635 3.14193 20.8581C3.23654 20.9527 3.40284 20.9194 3.73545 20.8529L6.81243 20.2375C7.40189 20.1196 7.69661 20.0607 7.95771 19.9209C8.21881 19.7812 8.43134 19.5687 8.8564 19.1436L15.7458 12.2542C14.1241 11.2386 12.7524 9.87627 11.7269 8.27311Z" fill="#222222" />
		</g>
	</symbol>
	<symbol id="deleteControls" width="24" height="24" viewBox="0 0 24 24" fill="none">
		<g>
			<path d="M9.5 14.5L9.5 11.5" stroke="#222222" stroke-linecap="round" />
			<path d="M14.5 14.5L14.5 11.5" stroke="#222222" stroke-linecap="round" />
			<path d="M3 6.5H21V6.5C19.5955 6.5 18.8933 6.5 18.3889 6.83706C18.1705 6.98298 17.983 7.17048 17.8371 7.38886C17.5 7.89331 17.5 8.59554 17.5 10V15.5C17.5 17.3856 17.5 18.3284 16.9142 18.9142C16.3284 19.5 15.3856 19.5 13.5 19.5H10.5C8.61438 19.5 7.67157 19.5 7.08579 18.9142C6.5 18.3284 6.5 17.3856 6.5 15.5V10C6.5 8.59554 6.5 7.89331 6.16294 7.38886C6.01702 7.17048 5.82952 6.98298 5.61114 6.83706C5.10669 6.5 4.40446 6.5 3 6.5V6.5Z" stroke="#222222" stroke-linecap="round" />
			<path d="M9.5 3.50024C9.5 3.50024 10 2.5 12 2.5C14 2.5 14.5 3.5 14.5 3.5" stroke="#222222" stroke-linecap="round" />
		</g>
	</symbol>
	<symbol id="closeControls">
		<g width="24" height="24" viewBox="0 0 24 24" fill="none">
			<path d="M18 6L6 18" stroke="#222222" stroke-linecap="round" stroke-linejoin="round" />
			<path d="M6 6L18 18" stroke="#222222" stroke-linecap="round" stroke-linejoin="round" />
		</g>
	</symbol>
	<symbol id="logout" width="25" height="25" viewBox="0 0 25 25" fill="none">
		<g>
			<g clip-path="url(#clip0_1222_37453)">
			  <path d="M16.9643 18.75V22.3214C16.9643 22.795 16.7761 23.2493 16.4412 23.5841C16.1063 23.9189 15.6521 24.1071 15.1785 24.1071H2.67854C2.20493 24.1071 1.75073 23.9189 1.41585 23.5841C1.08096 23.2493 0.892822 22.795 0.892822 22.3214V2.67854C0.892822 2.20493 1.08096 1.75073 1.41585 1.41585C1.75073 1.08096 2.20493 0.892822 2.67854 0.892822H15.1785C15.6521 0.892822 16.1063 1.08096 16.4412 1.41585C16.7761 1.75073 16.9643 2.20493 16.9643 2.67854V6.24997" stroke="#FDF8F0" stroke-linecap="round" stroke-linejoin="round"/>
			  <path d="M11.6071 12.5H24.1071" stroke="#FDF8F0" stroke-linecap="round" stroke-linejoin="round"/>
			  <path d="M20.5356 8.92847L24.1071 12.4999L20.5356 16.0713" stroke="#FDF8F0" stroke-linecap="round" stroke-linejoin="round"/>
			</g>
			<defs>
			  <clipPath id="clip0_1222_37453">
				<rect width="25" height="25" fill="white"/>
			  </clipPath>
			</defs>
		  </g>
	</symbol>
</svg>
