<?xml version="1.0" encoding="UTF-8"?>
<svg xmlns="http://www.w3.org/2000/svg">
	<symbol id="line" width="741" height="2" viewBox="0 0 741 2">
		<g>
			<!--
			<defs>
			<linearGradient id="gradient1" x1="0%" y1="50%" x2="100%" y2="50%">
			<stop offset="0%" stop-color="#563E0E" />
			<stop offset="100%" stop-color="rgba(86, 62, 14, 0.00)" />
			</linearGradient>
			</defs>
			-->
			<line x1="0" y1="0.5" x2="686" y2="0.5" stroke="url(#gradient1)" />
		</g>
	</symbol>
	<symbol id="check" width="35" height="35" viewBox="0 0 35 35">
		<g>
			<path d="M 33.472656 2.277344 C 31.890625 1.425781 30.128906 3.066406 29.097656 4.039062 C 26.730469 6.347656 24.722656 9.019531 22.476562 11.449219 C 19.984375 14.125 17.679688 16.796875 15.125 19.410156 C 13.667969 20.867188 12.089844 22.445312 11.117188 24.269531 C 8.929688 22.140625 7.046875 19.832031 4.617188 17.949219 C 2.855469 16.613281 -0.0585938 15.640625 0 18.863281 C 0.121094 23.054688 3.828125 27.546875 6.5625 30.402344 C 7.714844 31.617188 9.234375 32.894531 10.996094 32.953125 C 13.121094 33.074219 15.308594 30.523438 16.585938 29.128906 C 18.832031 26.699219 20.65625 23.964844 22.71875 21.472656 C 25.390625 18.195312 28.125 14.972656 30.738281 11.632812 C 32.378906 9.566406 37.542969 4.464844 33.472656 2.277344 Z M 2.671875 18.617188 C 2.613281 18.617188 2.550781 18.617188 2.429688 18.679688 C 2.1875 18.617188 2.003906 18.558594 1.761719 18.4375 C 1.945312 18.316406 2.25 18.375 2.671875 18.617188 Z M 2.671875 18.617188 " />
		</g>
	</symbol>
	<symbol id="star" width="20" height="20" viewBox="0 0 20 20" fill="none">
		<g>
			<g clip-path="url(#clip0_279_2389)">
				<path d="M4.47642 19.5956C4.2573 19.5956 4.03971 19.5273 3.854 19.393C3.50808 19.1423 3.34648 18.7114 3.44063 18.2956L4.72729 12.6278L0.363771 8.80115C0.0430227 8.52114 -0.0795085 8.07771 0.0521782 7.67197C0.183865 7.26699 0.54215 6.98027 0.966356 6.94105L6.73982 6.4169L9.02244 1.07512C9.19075 0.682654 9.57406 0.429199 9.99994 0.429199C10.4258 0.429199 10.8091 0.682654 10.9774 1.0742L13.2601 6.4169L19.0326 6.94105C19.4577 6.97935 19.816 7.26699 19.9477 7.67197C20.0794 8.07695 19.9576 8.52114 19.6369 8.80115L15.2734 12.6271L16.56 18.2946C16.6543 18.7114 16.4926 19.1423 16.1468 19.3922C15.8018 19.6422 15.3417 19.6614 14.9784 19.4431L9.99994 16.468L5.02148 19.4447C4.85317 19.5447 4.66564 19.5956 4.47642 19.5956ZM9.99994 15.1864C10.1892 15.1864 10.3765 15.2372 10.545 15.3371L15.2435 18.1472L14.0291 12.7978C13.9425 12.4171 14.0717 12.0196 14.3659 11.762L18.486 8.14867L13.035 7.65366C12.6425 7.6178 12.305 7.37106 12.1516 7.00942L9.99994 1.96839L7.84565 7.01018C7.69398 7.36938 7.35644 7.61612 6.96489 7.65198L1.51309 8.14699L5.63307 11.7604C5.92818 12.0187 6.05728 12.4154 5.96984 12.7971L4.75643 18.1463L9.45489 15.3371C9.62319 15.2372 9.81073 15.1864 9.99994 15.1864ZM6.69572 6.52021C6.69572 6.52021 6.69572 6.52112 6.6948 6.52188L6.69572 6.52021ZM13.3025 6.51777L13.3034 6.51944C13.3034 6.51853 13.3034 6.51853 13.3025 6.51777Z" fill="#FFA800" />
				<path d="M9.99994 15.1864C10.1892 15.1864 10.3765 15.2372 10.545 15.3371L15.2435 18.1472L14.0291 12.7978C13.9425 12.4171 14.0717 12.0196 14.3659 11.762L18.486 8.14867L13.035 7.65366C12.6425 7.6178 12.305 7.37106 12.1516 7.00942L9.99994 1.96839L7.84565 7.01018C7.69398 7.36938 7.35644 7.61612 6.96489 7.65198L1.51309 8.14699L5.63307 11.7604C5.92818 12.0187 6.05728 12.4154 5.96984 12.7971L4.75643 18.1463L9.45489 15.3371C9.62319 15.2372 9.81073 15.1864 9.99994 15.1864Z" fill="#FFA800" />
			</g>
			<defs>
				<clipPath id="clip0_279_2389">
					<rect width="20" height="20" fill="white" />
				</clipPath>
			</defs>
		</g>
	</symbol>
	<symbol id="timer" width="32" height="32" viewBox="0 0 32 32" fill="none">
		<g >
			<path d="M16 7.66667V16H24.3333M16 31C7.71573 31 1 24.2843 1 16C1 7.71573 7.71573 1 16 1C24.2843 1 31 7.71573 31 16C31 24.2843 24.2843 31 16 31Z" stroke="#13340A" stroke-width="2" stroke-linecap="round" stroke-linejoin="round" />
		</g>
	</symbol>
</svg>
