<?xml version="1.0" encoding="UTF-8"?>
<svg xmlns="http://www.w3.org/2000/svg">
	<symbol id="check" width="35" height="35" viewBox="0 0 35 35">
		<g>
			<path d="M 33.472656 2.277344 C 31.890625 1.425781 30.128906 3.066406 29.097656 4.039062 C 26.730469 6.347656 24.722656 9.019531 22.476562 11.449219 C 19.984375 14.125 17.679688 16.796875 15.125 19.410156 C 13.667969 20.867188 12.089844 22.445312 11.117188 24.269531 C 8.929688 22.140625 7.046875 19.832031 4.617188 17.949219 C 2.855469 16.613281 -0.0585938 15.640625 0 18.863281 C 0.121094 23.054688 3.828125 27.546875 6.5625 30.402344 C 7.714844 31.617188 9.234375 32.894531 10.996094 32.953125 C 13.121094 33.074219 15.308594 30.523438 16.585938 29.128906 C 18.832031 26.699219 20.65625 23.964844 22.71875 21.472656 C 25.390625 18.195312 28.125 14.972656 30.738281 11.632812 C 32.378906 9.566406 37.542969 4.464844 33.472656 2.277344 Z M 2.671875 18.617188 C 2.613281 18.617188 2.550781 18.617188 2.429688 18.679688 C 2.1875 18.617188 2.003906 18.558594 1.761719 18.4375 C 1.945312 18.316406 2.25 18.375 2.671875 18.617188 Z M 2.671875 18.617188 " />
		</g>
	</symbol>
	<symbol id="star" width="20" height="20" viewBox="0 0 20 20" fill="none">
		<g>
			<g clip-path="url(#clip0_279_2389)">
				<path d="M4.47642 19.5956C4.2573 19.5956 4.03971 19.5273 3.854 19.393C3.50808 19.1423 3.34648 18.7114 3.44063 18.2956L4.72729 12.6278L0.363771 8.80115C0.0430227 8.52114 -0.0795085 8.07771 0.0521782 7.67197C0.183865 7.26699 0.54215 6.98027 0.966356 6.94105L6.73982 6.4169L9.02244 1.07512C9.19075 0.682654 9.57406 0.429199 9.99994 0.429199C10.4258 0.429199 10.8091 0.682654 10.9774 1.0742L13.2601 6.4169L19.0326 6.94105C19.4577 6.97935 19.816 7.26699 19.9477 7.67197C20.0794 8.07695 19.9576 8.52114 19.6369 8.80115L15.2734 12.6271L16.56 18.2946C16.6543 18.7114 16.4926 19.1423 16.1468 19.3922C15.8018 19.6422 15.3417 19.6614 14.9784 19.4431L9.99994 16.468L5.02148 19.4447C4.85317 19.5447 4.66564 19.5956 4.47642 19.5956ZM9.99994 15.1864C10.1892 15.1864 10.3765 15.2372 10.545 15.3371L15.2435 18.1472L14.0291 12.7978C13.9425 12.4171 14.0717 12.0196 14.3659 11.762L18.486 8.14867L13.035 7.65366C12.6425 7.6178 12.305 7.37106 12.1516 7.00942L9.99994 1.96839L7.84565 7.01018C7.69398 7.36938 7.35644 7.61612 6.96489 7.65198L1.51309 8.14699L5.63307 11.7604C5.92818 12.0187 6.05728 12.4154 5.96984 12.7971L4.75643 18.1463L9.45489 15.3371C9.62319 15.2372 9.81073 15.1864 9.99994 15.1864ZM6.69572 6.52021C6.69572 6.52021 6.69572 6.52112 6.6948 6.52188L6.69572 6.52021ZM13.3025 6.51777L13.3034 6.51944C13.3034 6.51853 13.3034 6.51853 13.3025 6.51777Z" fill="#FFA800" />
				<path d="M9.99994 15.1864C10.1892 15.1864 10.3765 15.2372 10.545 15.3371L15.2435 18.1472L14.0291 12.7978C13.9425 12.4171 14.0717 12.0196 14.3659 11.762L18.486 8.14867L13.035 7.65366C12.6425 7.6178 12.305 7.37106 12.1516 7.00942L9.99994 1.96839L7.84565 7.01018C7.69398 7.36938 7.35644 7.61612 6.96489 7.65198L1.51309 8.14699L5.63307 11.7604C5.92818 12.0187 6.05728 12.4154 5.96984 12.7971L4.75643 18.1463L9.45489 15.3371C9.62319 15.2372 9.81073 15.1864 9.99994 15.1864Z" fill="#FFA800" />
			</g>
			<defs>
				<clipPath id="clip0_279_2389">
					<rect width="20" height="20" fill="white" />
				</clipPath>
			</defs>
		</g>
	</symbol>
	<symbol id="timer" width="32" height="32" viewBox="0 0 32 32" fill="none">
		<g>
			<path d="M16 7.66667V16H24.3333M16 31C7.71573 31 1 24.2843 1 16C1 7.71573 7.71573 1 16 1C24.2843 1 31 7.71573 31 16C31 24.2843 24.2843 31 16 31Z" stroke="#13340A" stroke-width="2" stroke-linecap="round" stroke-linejoin="round" />
		</g>
	</symbol>
	<symbol id="ok" width="40" height="40" viewBox="0 0 40 40" fill="none">
		<g>
			<rect width="40" height="40" fill="#F79A38" />
			<path d="M26.2376 22.7928C26.7624 22.2681 26.8373 21.5185 26.3876 20.7689C26.0128 20.1692 25.3381 19.8694 24.5885 20.0193C24.2887 20.0942 23.9888 20.2442 23.689 20.469C21.3652 22.0432 18.2168 21.9683 15.893 20.3941C15.7431 20.3191 15.5932 20.2442 15.4433 20.1692C14.6187 19.7944 13.7941 19.9443 13.3444 20.6939C12.8196 21.4435 12.8946 22.2681 13.5692 22.9428C13.7192 23.0927 13.8691 23.1676 13.944 23.3176L14.019 23.3925C15.0685 24.2171 16.3428 24.7418 17.9919 24.9667L17.0174 25.9412C16.1929 26.7658 15.2933 27.6653 14.4688 28.4899C14.2439 28.7148 13.944 29.0896 13.944 29.6143C13.944 30.2889 14.3188 30.9636 14.9935 31.2634C15.2184 31.4133 15.4433 31.4133 15.6681 31.4133C16.0429 31.4133 16.4927 31.2634 16.7926 30.8886C17.917 29.7642 18.8165 28.8647 19.716 27.9651C19.791 27.8902 19.791 27.8902 19.791 27.8902C19.791 27.8902 19.866 27.8902 19.866 27.9651C20.4656 28.6398 21.1403 29.2395 21.74 29.9141C22.0398 30.214 22.3397 30.5138 22.6395 30.8137C23.0143 31.1885 23.3142 31.3384 23.7639 31.3384C24.4386 31.4134 25.1882 30.9636 25.488 30.2889C25.7879 29.6892 25.638 28.9396 25.1132 28.4899C24.3636 27.7403 23.614 26.9157 22.7894 26.1661L21.5151 24.8917C22.1898 24.8168 22.9394 24.6669 23.614 24.367C24.7384 23.9922 25.563 23.4675 26.2376 22.7928Z" fill="white" />
			<path d="M19.791 20.6939C23.0143 20.6939 25.638 18.1452 25.638 14.9219C25.638 13.3477 25.0383 11.8485 23.9138 10.7241C22.7894 9.59969 21.3652 9 19.866 9C16.6426 9 14.094 11.6236 14.019 14.772C14.019 16.3462 14.6187 17.7704 15.7431 18.8948C16.7926 20.0942 18.2168 20.6939 19.791 20.6939ZM18.1419 13.1978C18.5916 12.7481 19.1913 12.5232 19.791 12.5232C21.1403 12.5232 22.1148 13.5726 22.1148 14.847C22.1148 16.1963 21.0653 17.1707 19.791 17.1707C18.4417 17.1707 17.4672 16.1213 17.4672 14.847C17.4672 14.2473 17.6921 13.6476 18.1419 13.1978Z" fill="white" />
			<path d="M26.2376 22.7928C26.7624 22.2681 26.8373 21.5185 26.3876 20.7689C26.0128 20.1692 25.3381 19.8694 24.5885 20.0193C24.2887 20.0942 23.9888 20.2442 23.689 20.469C21.3652 22.0432 18.2168 21.9683 15.893 20.3941C15.7431 20.3191 15.5932 20.2442 15.4433 20.1692C14.6187 19.7944 13.7941 19.9443 13.3444 20.6939C12.8196 21.4435 12.8946 22.2681 13.5692 22.9428C13.7192 23.0927 13.8691 23.1676 13.944 23.3176L14.019 23.3925C15.0685 24.2171 16.3428 24.7418 17.9919 24.9667L17.0174 25.9412C16.1929 26.7658 15.2933 27.6653 14.4688 28.4899C14.2439 28.7148 13.944 29.0896 13.944 29.6143C13.944 30.2889 14.3188 30.9636 14.9935 31.2634C15.2184 31.4133 15.4433 31.4133 15.6681 31.4133C16.0429 31.4133 16.4927 31.2634 16.7926 30.8886C17.917 29.7642 18.8165 28.8647 19.716 27.9651C19.791 27.8902 19.791 27.8902 19.791 27.8902C19.791 27.8902 19.866 27.8902 19.866 27.9651C20.4656 28.6398 21.1403 29.2395 21.74 29.9141C22.0398 30.214 22.3397 30.5138 22.6395 30.8137C23.0143 31.1885 23.3142 31.3384 23.7639 31.3384C24.4386 31.4134 25.1882 30.9636 25.488 30.2889C25.7879 29.6892 25.638 28.9396 25.1132 28.4899C24.3636 27.7403 23.614 26.9157 22.7894 26.1661L21.5151 24.8917C22.1898 24.8168 22.9394 24.6669 23.614 24.367C24.7384 23.9922 25.563 23.4675 26.2376 22.7928Z" fill="white" />
		</g>
	</symbol>
	<symbol id="vk" width="40" height="40" viewBox="0 0 40 40" fill="none">
		<g>
			<rect width="40" height="40" fill="#0077FF" />
			<path d="M20.9825 27C13.466 27 9.17864 21.7447 9 13H12.7651C12.8888 19.4184 15.6646 22.1371 17.8632 22.6977V13H21.4085V18.5355C23.5796 18.2973 25.8607 15.7748 26.6302 13H30.1755C29.8855 14.4391 29.3075 15.8017 28.4776 17.0025C27.6477 18.2033 26.5837 19.2166 25.3523 19.979C26.7269 20.6756 27.941 21.6615 28.9145 22.8717C29.888 24.082 30.5988 25.489 31 27H27.0974C26.7373 25.6876 26.0054 24.5128 24.9934 23.6228C23.9814 22.7328 22.7343 22.1673 21.4085 21.997V27H20.9825Z" fill="white" />
		</g>
	</symbol>
	<symbol id="telegram" width="40" height="40" viewBox="0 0 40 40" fill="none">
		<g>
			<rect width="40" height="40" fill="#27A6E5" />
			<path d="M28 12.6022L24.9946 28.2923C24.9946 28.2923 24.5741 29.3801 23.4189 28.8584L16.4846 23.3526L16.4524 23.3364C17.3891 22.4654 24.6524 15.7027 24.9698 15.3961C25.4613 14.9214 25.1562 14.6387 24.5856 14.9974L13.8568 22.053L9.71764 20.6108C9.71764 20.6108 9.06626 20.3708 9.00359 19.8491C8.9401 19.3265 9.73908 19.0439 9.73908 19.0439L26.6131 12.1889C26.6131 12.1889 28 11.5579 28 12.6022Z" fill="#FEFEFE" />
		</g>
	</symbol>
	<symbol id="phone" width="14" height="14" viewBox="0 0 14 14" fill="none">
		<g>

				<path d="M1.0183 5.24782C0.6219 4.63328 0.4491 3.90097 0.529 3.17402C0.609 2.44708 0.9368 1.76983 1.4574 1.25617L1.8965 0.807105C2.0979 0.610232 2.3683 0.5 2.6499 0.5C2.9315 0.5 3.202 0.610232 3.4033 0.807105L5.28939 2.71312C5.48563 2.91281 5.59559 3.18158 5.59559 3.46156C5.59559 3.74153 5.48563 4.01031 5.28939 4.20999C5.09251 4.41136 4.98228 4.6818 4.98228 4.96342C4.98228 5.24504 5.09251 5.51547 5.28939 5.71684L8.28313 8.71058C8.38155 8.81045 8.49884 8.88976 8.62818 8.94389C8.75752 8.99802 8.89634 9.0259 9.03655 9.0259C9.17677 9.0259 9.31558 8.99802 9.44493 8.94389C9.57427 8.88976 9.69156 8.81045 9.78998 8.71058C9.98966 8.51434 10.2584 8.40438 10.5384 8.40438C10.8184 8.40438 11.0872 8.51434 11.2869 8.71058L13.1829 10.6066C13.3798 10.808 13.49 11.0784 13.49 11.36C13.49 11.6417 13.3798 11.9121 13.1829 12.1135L12.7338 12.5526C12.2202 13.0731 11.5429 13.4009 10.816 13.4809C10.089 13.5609 9.35671 13.3881 8.74217 12.9916C5.6978 10.9259 3.0762 8.29751 1.0183 5.24782Z"  stroke-linecap="round" stroke-linejoin="round" />
		</g>
	</symbol>
	<symbol id="location" width="17" height="17" viewBox="0 0 17 17" fill="none">
		<g>
			<path d="M13.8125 8.5C13.8125 11.9341 10.1837 14.2882 8.92437 15.0018C8.65814 15.1527 8.34186 15.1527 8.07563 15.0018C6.81627 14.2882 3.1875 11.9341 3.1875 8.5C3.1875 5.3125 5.76159 3.1875 8.5 3.1875C11.3333 3.1875 13.8125 5.3125 13.8125 8.5Z"  />
			<circle cx="8.49999" cy="8.49999" r="2.33333"  />
		</g>
	</symbol>
	<symbol id="close" width="14" height="14" viewBox="0 0 14 14" fill="none">
		<g>
			<g clip-path="url(#clip0_1222_37032)">
				<path d="M13.5 0.5L0.5 13.5" stroke="black" stroke-linecap="round" stroke-linejoin="round" />
				<path d="M0.5 0.5L13.5 13.5" stroke="black" stroke-linecap="round" stroke-linejoin="round" />
			</g>
			<defs>
				<clipPath id="clip0_1222_37032">
					<rect width="14" height="14" fill="white" />
				</clipPath>
			</defs>
		</g>
	</symbol>
</svg>
